<svg height="512pt" viewBox="0 0 512 512" width="512pt" xmlns="http://www.w3.org/2000/svg"><path d="m301 151c-15.875 0-31.242188 4.230469-45 12.320312-13.757812-8.089843-29.125-12.320312-45-12.320312-49.625 0-90 40.375-90 90 0 15.683594 4.078125 30.90625 11.867188 44.484375-7.78125 20.496094-11.867188 41.265625-11.867188 60.515625 0 74.480469 59.683594 105 135 105 75.023438 0 135-29.886719 135-105 0-19.25-4.089844-40.023438-11.867188-60.515625 7.789063-13.578125 11.867188-28.800781 11.867188-44.484375 0-49.625-40.375-90-90-90zm-139.070312 124.335938c-7.152344-10.1875-10.929688-22.0625-10.929688-34.335938 0-33.085938 26.914062-60 60-60 12.871094 0 25.304688 4.253906 35.957031 12.304688 5.351563 4.046874 12.734375 4.046874 18.085938 0 10.652343-8.050782 23.085937-12.304688 35.957031-12.304688 33.085938 0 60 26.914062 60 60 0 12.273438-3.777344 24.148438-10.929688 34.335938-2.972656 4.238281-3.550781 9.714843-1.523437 14.480468 8.144531 19.179688 12.453125 38.605469 12.453125 56.183594 0 9.75-1.300781 18.476562-3.921875 26.230469-28.324219-7.273438-63.613281-11.230469-101.078125-11.230469s-72.753906 3.957031-101.078125 11.230469c-2.621094-7.753907-3.921875-16.480469-3.921875-26.230469 0-17.574219 4.308594-37.003906 12.453125-56.183594 2.027344-4.765625 1.449219-10.242187-1.523437-14.480468zm94.070312 145.664062c-27.886719 0-61.472656-4.609375-82.773438-22.21875 23.945313-5.007812 52.914063-7.78125 82.773438-7.78125s58.828125 2.773438 82.773438 7.78125c-1.921876 1.589844-3.960938 3.097656-6.136719 4.523438-17.683594 11.574218-44.1875 17.695312-76.636719 17.695312zm0 0"/><path d="m437 121c-7.464844 0-14.886719 1.128906-21.984375 3.300781-46.300781-80.214843-102.613281-124.300781-159.015625-124.300781s-112.714844 44.085938-159.015625 124.300781c-7.097656-2.171875-14.519531-3.300781-21.984375-3.300781-41.355469 0-75 33.644531-75 75 0 28.675781 16.421875 54.472656 41.316406 67.011719-7.296875 29.667969-11.316406 58.152343-11.316406 82.988281 0 125.585938 101.875 166 226 166 124.066406 0 226-40.378906 226-166 0-24.835938-4.019531-53.320312-11.316406-82.988281 24.894531-12.539063 41.316406-38.335938 41.316406-67.011719 0-41.355469-33.644531-75-75-75zm-407 75c0-24.8125 20.1875-45 45-45 2.496094 0 4.945312.214844 7.351562.609375-13.066406 26.261719-24.160156 54.066406-32.71875 81.566406-12.007812-8.222656-19.632812-22.03125-19.632812-37.175781zm226 286c-107.066406 0-196-29.339844-196-136 0-110.050781 91.488281-316 196-316 104.324219 0 196 205.625 196 316 0 106.648438-88.910156 136-196 136zm206.371094-248.824219c-8.5625-27.5-19.65625-55.304687-32.722656-81.566406 2.40625-.394531 4.855468-.609375 7.351562-.609375 24.8125 0 45 20.1875 45 45 0 15.144531-7.625 28.953125-19.628906 37.175781zm0 0"/><path d="m241 316c0 8.285156-6.714844 15-15 15s-15-6.714844-15-15 6.714844-15 15-15 15 6.714844 15 15zm0 0"/><path d="m226 241c0 8.285156-6.714844 15-15 15s-15-6.714844-15-15 6.714844-15 15-15 15 6.714844 15 15zm0 0"/><path d="m316 241c0 8.285156-6.714844 15-15 15s-15-6.714844-15-15 6.714844-15 15-15 15 6.714844 15 15zm0 0"/><path d="m301 316c0 8.285156-6.714844 15-15 15s-15-6.714844-15-15 6.714844-15 15-15 15 6.714844 15 15zm0 0"/></svg>